<svg width="217" height="25" viewBox="0 0 217 25" xmlns="http://www.w3.org/2000/svg">
  <g transform="translate(0,0) scale(0.168539,0.170068)">
    <path d="M0.928467 144.005C65.9285 118.005 80.4285 78.0055 96.4285 0.505493C91.9793 70.538 96.4285 120.505 176.428 144.005C96.4285 120.505 76.4285 130.005 0.928467 144.005Z" fill="#1C1C1E" stroke="#1C1C1E" stroke-width="5" stroke-linejoin="bevel"></path>
  </g>
  <g transform="translate(42,6) scale(0.382096,0.382353)">
    <path d="M97.0079 1.10397C97.3919 1.77597 97.3919 2.59197 97.0079 3.26397L90.9119 14.784L85.0079 17.76L87.7919 20.448L86.0159 23.616C82.5599 29.808 76.0319 33.6 68.9759 33.6H2.30393L-6.8903e-05 32.208L0.671931 32.016C0.671931 32.016 2.20793 31.44 4.17593 30.144L6.09593 26.688L18.8159 3.35997L17.5199 -2.67029e-05H95.2799C95.9999 -2.67029e-05 96.6719 0.431973 97.0079 1.10397ZM74.3519 7.72797C74.3999 7.63198 74.3999 7.48797 74.3519 7.34397C74.2559 7.24797 74.1599 7.15198 74.0159 7.15198H36.9599L35.8559 9.16798L35.1359 10.464L34.2239 12.144L28.1759 23.232L26.3999 26.448H64.1279L67.4399 20.4H33.4079L40.9919 13.248H71.3279L73.0559 10.032L74.3519 7.72797ZM180.211 1.10397C180.595 1.77597 180.595 2.59197 180.211 3.26397L176.179 10.704L169.123 23.568L167.251 26.928L163.603 33.6H143.395L141.091 32.208L141.715 32.016C141.715 32.016 143.251 31.488 145.363 30.048L147.235 26.592L150.595 20.448H112.915L105.715 33.6H85.4591L83.2031 32.208L83.8751 32.016C83.8751 32.016 85.3631 31.488 87.4271 30.096L102.019 3.35997L100.723 -2.67029e-05H178.483C179.203 -2.67029e-05 179.875 0.431973 180.211 1.10397ZM157.507 7.82398C157.555 7.72797 157.555 7.58397 157.507 7.43997C157.411 7.34397 157.315 7.24797 157.171 7.24797H120.115L116.851 13.2L154.531 13.248L157.507 7.82398ZM245.82 0.0479727H266.076L247.644 33.6H227.436L201.9 11.856L189.996 33.6H169.74L167.484 32.208L168.156 32.016C168.156 32.016 169.644 31.536 171.612 30.192C171.66 30.144 171.708 30.096 171.708 30.096L186.3 3.35997L185.004 0.0479727H208.236L208.332 0.0959749L233.868 21.888L245.82 0.0479727ZM350.456 0.0479727L309.848 14.496L326.264 33.648H303.272L292.424 20.736L290.216 18.096H282.632L274.184 33.648H253.928V33.6L251.672 32.208L252.344 32.016C252.344 32.016 253.832 31.488 255.896 30.096L270.488 3.31197L269.192 0.0479727H292.568L286.712 10.704L318.44 0.0479727H350.456ZM429.586 1.10397C429.97 1.77597 429.97 2.59197 429.586 3.26397L425.554 10.704L418.498 23.568L416.626 26.928L412.978 33.6H392.77L390.466 32.208L391.09 32.016C391.09 32.016 392.626 31.488 394.738 30.048L396.61 26.592L399.97 20.448H362.29L355.09 33.6H334.834L332.578 32.208L333.25 32.016C333.25 32.016 334.738 31.488 336.802 30.096L351.394 3.35997L350.098 -2.67029e-05H427.858C428.578 -2.67029e-05 429.25 0.431973 429.586 1.10397ZM406.882 7.82398C406.93 7.72797 406.93 7.58397 406.882 7.43997C406.786 7.34397 406.69 7.24797 406.546 7.24797H369.49L366.226 13.2L403.906 13.248L406.882 7.82398ZM434.379 0.0479727H457.755L446.571 20.4L439.371 33.648H419.115L416.859 32.256L417.531 32.016C417.531 32.016 419.067 31.44 421.083 30.096L435.675 3.35997L434.379 0.0479727Z" fill="#1C1C1E"></path>
  </g>
</svg>
